<svg xmlns="http://www.w3.org/2000/svg" width="512" height="512" viewBox="0 0 512 512" version="1.1">
	<path d="M 220.765 79.196 C 220.280 87.393, 220.122 87.810, 208.525 111.500 C 202.063 124.700, 193.953 141.350, 190.503 148.500 C 187.054 155.650, 179.958 170.275, 174.736 181 C 152.044 227.603, 145.345 241.377, 138.503 255.500 C 134.506 263.750, 126.487 280.288, 120.684 292.250 C 114.880 304.212, 109.764 314.003, 109.316 314.008 C 108.867 314.012, 104.675 314.465, 100 315.015 C 61.882 319.499, 27.031 323.080, 24.750 322.747 C 22.019 322.349, 22 322.386, 22 328.175 C 22 332.360, 24 341.118, 29.099 359.251 C 44.256 413.163, 52.005 440.332, 52.248 440.414 C 52.386 440.461, 133.625 440.275, 232.778 440 L 413.055 439.500 425.063 412.500 C 431.667 397.650, 437.691 384.150, 438.449 382.500 C 439.207 380.850, 443.509 371.175, 448.008 361 C 452.508 350.825, 457 340.700, 457.991 338.500 C 459.975 334.093, 479.186 290.871, 481.992 284.500 C 487.110 272.878, 487.990 270.657, 487.620 270.287 C 487.398 270.065, 485.480 270.619, 483.358 271.519 C 479.645 273.094, 472.975 273.968, 422.500 279.501 C 409.850 280.887, 386 283.537, 369.500 285.388 C 353 287.240, 339.201 288.582, 338.836 288.371 C 338.471 288.161, 335.938 283.828, 333.208 278.744 C 313.524 242.087, 298.564 214.163, 294.506 206.500 C 291.884 201.550, 288.726 195.700, 287.487 193.500 C 286.248 191.300, 281.868 183.200, 277.755 175.500 C 263.906 149.576, 261.745 145.542, 254.724 132.500 C 246.349 116.945, 236.085 97.844, 229.468 85.500 C 226.815 80.550, 223.882 75.238, 222.950 73.696 L 221.256 70.893 220.765 79.196 M 228.997 108.550 C 228.994 109.761, 224.680 180.599, 221.479 232 C 216.472 312.412, 214.062 350.766, 213.390 360.750 C 213.010 366.387, 212.912 371, 213.172 371 C 213.433 371, 221.038 368.261, 230.073 364.914 C 239.108 361.566, 249.425 357.796, 253 356.535 C 256.575 355.274, 267.600 351.223, 277.500 347.533 C 287.400 343.843, 301.575 338.586, 309 335.849 C 328.829 328.542, 344.451 322.676, 344.850 322.387 C 345.042 322.248, 342.056 316.366, 338.213 309.317 C 334.371 302.268, 321.225 277.825, 309 255 C 296.775 232.175, 283.735 207.875, 280.022 201 C 276.310 194.125, 266.402 175.675, 258.005 160 C 230.141 107.987, 229.005 105.971, 228.997 108.550 M 212.559 126.177 C 209.842 131.854, 201.578 148.875, 194.195 164 C 186.812 179.125, 178.627 196, 176.007 201.500 C 173.386 207, 166.746 220.725, 161.251 232 C 143.660 268.091, 132.944 290.115, 125.488 305.500 C 121.490 313.750, 115.479 326.097, 112.131 332.938 C 108.782 339.779, 106.145 345.444, 106.271 345.528 C 106.397 345.611, 124.050 350.526, 145.500 356.450 C 166.950 362.374, 188.294 368.305, 192.930 369.630 C 197.567 370.955, 201.657 371.693, 202.019 371.270 C 202.382 370.846, 203.218 361.500, 203.877 350.500 C 207.603 288.297, 208.998 265.772, 209.511 259.500 C 209.826 255.650, 210.964 238.100, 212.039 220.500 C 213.115 202.900, 214.919 173.469, 216.049 155.098 C 217.179 136.727, 217.968 120.382, 217.802 118.775 C 217.544 116.282, 216.774 117.369, 212.559 126.177 M 405 291.530 C 388.775 293.357, 368.525 295.637, 360 296.596 C 351.475 297.555, 344.373 298.428, 344.219 298.535 C 343.931 298.734, 351.161 312.681, 353.654 316.736 L 355.028 318.972 361.764 316.394 C 365.469 314.976, 375.025 311.421, 383 308.494 C 425.493 292.899, 437.809 288.134, 435.500 288.185 C 434.950 288.197, 421.225 289.702, 405 291.530 M 462 290.167 C 453.777 293.252, 432.755 301.028, 412.500 308.477 C 402.600 312.118, 381.675 319.855, 366 325.670 C 350.325 331.486, 331.650 338.397, 324.500 341.028 C 317.350 343.660, 305.425 348.066, 298 350.819 C 278.470 358.062, 242.747 371.242, 226.271 377.283 C 218.445 380.152, 212.032 383.049, 212.021 383.720 C 212.008 384.444, 210.681 384.901, 208.750 384.845 C 206.963 384.794, 200.550 386.653, 194.500 388.978 C 188.450 391.302, 178.100 395.155, 171.500 397.540 C 164.900 399.924, 152.750 404.414, 144.500 407.515 C 136.250 410.617, 126.575 414.192, 123 415.459 C 109.934 420.091, 88.460 428.205, 87 429.062 C 86.133 429.571, 153.168 429.849, 245.971 429.721 L 406.443 429.500 421.139 396.500 C 429.222 378.350, 436.819 361.250, 438.021 358.500 C 440.241 353.421, 456.608 316.590, 464.610 298.668 C 467.025 293.260, 469 288.648, 469 288.418 C 469 287.705, 467.691 288.032, 462 290.167 M 79 327.572 C 67.725 328.846, 57.412 329.913, 56.083 329.944 C 54.754 329.975, 53.918 330.251, 54.224 330.558 C 54.968 331.302, 93.076 341.980, 95.027 341.991 C 95.950 341.997, 98.222 338.637, 100.770 333.500 L 104.985 325 102.243 325.127 C 100.734 325.198, 90.275 326.297, 79 327.572 M 33.469 337.750 C 33.844 338.712, 35.242 343.438, 36.576 348.250 C 47.242 386.747, 58.728 427.061, 59.151 427.484 C 59.531 427.864, 72.497 423.261, 106 410.851 C 113.425 408.101, 126.025 403.441, 134 400.496 C 141.975 397.551, 155.925 392.382, 165 389.009 C 174.075 385.636, 183.437 382.178, 185.804 381.326 C 188.172 380.473, 189.972 379.654, 189.804 379.506 C 189.637 379.357, 173.975 374.930, 155 369.667 C 136.025 364.403, 111.725 357.642, 101 354.641 C 50.569 340.531, 34.161 336, 33.501 336 C 33.108 336, 33.093 336.788, 33.469 337.750" stroke="none" fill="black" fill-rule="evenodd"/>
</svg>